<?xml version="1.0" standalone="no"?><!DOCTYPE svg PUBLIC "-//W3C//DTD SVG 1.1//EN" "http://www.w3.org/Graphics/SVG/1.1/DTD/svg11.dtd"><svg xmlns:xlink="http://www.w3.org/1999/xlink" version="1.1" style="font-family:'lucida grande', 'lucida sans unicode', arial, helvetica, sans-serif;font-size:12px;" xmlns="http://www.w3.org/2000/svg" width="580" height="600"><desc>Created with Highcharts 4.2.3</desc><defs><clipPath id="highcharts-7"><rect x="0" y="0" width="460" height="370"></rect></clipPath></defs><rect x="0" y="0" width="580" height="600" fill="#FFFFFF" class=" highcharts-background"></rect><path fill="rgb(222, 222, 222)" d="M 164.5 140 L 164.5 510 229.5 510 229.5 140" ></path><g class="highcharts-grid" ></g><g class="highcharts-grid" ><path fill="none" d="M 80 510.5 L 540 510.5" stroke="#c0c0c0" stroke-width="1" stroke-dasharray="1,3"  opacity="1"></path><path fill="none" d="M 80 448.5 L 540 448.5" stroke="#c0c0c0" stroke-width="1" stroke-dasharray="1,3"  opacity="1"></path><path fill="none" d="M 80 387.5 L 540 387.5" stroke="#c0c0c0" stroke-width="1" stroke-dasharray="1,3"  opacity="1"></path><path fill="none" d="M 80 325.5 L 540 325.5" stroke="#c0c0c0" stroke-width="1" stroke-dasharray="1,3"  opacity="1"></path><path fill="none" d="M 80 263.5 L 540 263.5" stroke="#c0c0c0" stroke-width="1" stroke-dasharray="1,3"  opacity="1"></path><path fill="none" d="M 80 202.5 L 540 202.5" stroke="#c0c0c0" stroke-width="1" stroke-dasharray="1,3"  opacity="1"></path><path fill="none" d="M 80 139.5 L 540 139.5" stroke="#c0c0c0" stroke-width="1" stroke-dasharray="1,3"  opacity="1"></path></g><g class="highcharts-axis" ><path fill="none" d="M 81.5 510 L 81.5 520" stroke="#C0D0E0" stroke-width="1" opacity="1"></path><path fill="none" d="M 124.5 510 L 124.5 520" stroke="#C0D0E0" stroke-width="1" opacity="1"></path><path fill="none" d="M 168.5 510 L 168.5 520" stroke="#C0D0E0" stroke-width="1" opacity="1"></path><path fill="none" d="M 211.5 510 L 211.5 520" stroke="#C0D0E0" stroke-width="1" opacity="1"></path><path fill="none" d="M 255.5 510 L 255.5 520" stroke="#C0D0E0" stroke-width="1" opacity="1"></path><path fill="none" d="M 298.5 510 L 298.5 520" stroke="#C0D0E0" stroke-width="1" opacity="1"></path><path fill="none" d="M 342.5 510 L 342.5 520" stroke="#C0D0E0" stroke-width="1" opacity="1"></path><path fill="none" d="M 385.5 510 L 385.5 520" stroke="#C0D0E0" stroke-width="1" opacity="1"></path><path fill="none" d="M 429.5 510 L 429.5 520" stroke="#C0D0E0" stroke-width="1" opacity="1"></path><path fill="none" d="M 472.5 510 L 472.5 520" stroke="#C0D0E0" stroke-width="1" opacity="1"></path><path fill="none" d="M 515.5 510 L 515.5 520" stroke="#C0D0E0" stroke-width="1" opacity="1"></path><path fill="none" d="M 80 510.6 L 540 510.6" stroke="gray" stroke-width="1.2" ></path></g><g class="highcharts-axis" ><path fill="none" d="M 80 510.5 L 70 510.5" stroke="#C0D0E0" stroke-width="1" opacity="1"></path><path fill="none" d="M 80 448.5 L 70 448.5" stroke="#C0D0E0" stroke-width="1" opacity="1"></path><path fill="none" d="M 80 387.5 L 70 387.5" stroke="#C0D0E0" stroke-width="1" opacity="1"></path><path fill="none" d="M 80 325.5 L 70 325.5" stroke="#C0D0E0" stroke-width="1" opacity="1"></path><path fill="none" d="M 80 263.5 L 70 263.5" stroke="#C0D0E0" stroke-width="1" opacity="1"></path><path fill="none" d="M 80 202.5 L 70 202.5" stroke="#C0D0E0" stroke-width="1" opacity="1"></path><path fill="none" d="M 80 139.5 L 70 139.5" stroke="#C0D0E0" stroke-width="1" opacity="1"></path><path fill="none" d="M 79.5 140 L 79.5 510" stroke="gray" stroke-width="1" ></path></g><g class="highcharts-series-group" ><g class="highcharts-series highcharts-series-0"  transform="translate(80,140) scale(1 1)" clip-path="url(#highcharts-7)"><path fill="none" d="M 1.811023622047244 308.3333333333333 L 5.4330708661417315 307.71666666666664 L 9.05511811023622 305.8666666666667 L 12.677165354330707 303.40000000000003 L 16.299212598425196 301.85833333333335 L 19.921259842519685 301.2416666666667 L 23.54330708661417 300.31666666666666 L 27.16535433070866 299.7 L 30.787401574803148 301.2416666666667 L 34.40944881889764 302.78333333333336 L 38.031496062992126 303.40000000000003 L 41.653543307086615 302.78333333333336 L 45.2755905511811 301.85833333333335 L 48.897637795275585 300.31666666666666 L 52.519685039370074 297.23333333333335 L 56.14173228346456 295.3833333333333 L 59.76377952755905 293.22499999999997 L 63.38582677165354 292.60833333333335 L 67.00787401574803 292.91666666666663 L 70.62992125984252 293.5333333333333 L 74.25196850393701 292.60833333333335 L 77.8740157480315 291.6833333333333 L 81.49606299212599 289.8333333333333 L 85.11811023622047 290.14166666666665 L 88.74015748031495 288.59999999999997 L 92.36220472440944 287.3666666666667 L 95.98425196850393 284.59166666666664 L 99.60629921259842 282.7416666666667 L 103.2283464566929 279.96666666666664 L 106.8503937007874 276.575 L 110.47244094488188 274.72499999999997 L 114.09448818897637 275.9583333333333 L 117.71653543307086 276.575 L 121.33858267716535 279.96666666666664 L 124.96062992125984 286.44166666666666 L 128.5826771653543 289.8333333333333 L 132.2047244094488 288.29166666666663 L 135.8267716535433 286.75 L 139.44881889763778 285.825 L 143.07086614173227 285.2083333333333 L 146.69291338582676 284.2833333333333 L 150.31496062992125 281.2 L 153.93700787401573 281.81666666666666 L 157.55905511811022 281.2 L 161.1811023622047 280.89166666666665 L 164.8031496062992 280.5833333333333 L 168.4251968503937 280.27500000000003 L 172.04724409448818 280.89166666666665 L 175.66929133858264 279.6583333333333 L 179.29133858267713 279.6583333333333 L 182.91338582677162 278.42499999999995 L 186.5354330708661 277.8083333333333 L 190.1574803149606 277.5 L 193.77952755905508 277.8083333333333 L 197.40157480314957 277.8083333333333 L 201.02362204724406 277.19166666666666 L 204.64566929133855 276.8833333333333 L 208.26771653543304 276.575 L 211.88976377952753 276.575 L 215.51181102362202 275.9583333333333 L 219.1338582677165 274.10833333333335 L 222.755905511811 272.56666666666666 L 226.37795275590548 269.17499999999995 L 229.99999999999997 267.01666666666665 L 233.62204724409446 265.16666666666663 L 237.24409448818895 265.7833333333333 L 240.86614173228344 265.47499999999997 L 244.48818897637793 264.54999999999995 L 248.11023622047242 263.9333333333333 L 251.7322834645669 264.54999999999995 L 255.3543307086614 264.85833333333335 L 258.97637795275585 265.7833333333333 L 262.59842519685037 264.2416666666667 L 266.22047244094483 262.7 L 269.84251968503935 259.92499999999995 L 273.4645669291338 259 L 277.0866141732283 259.3083333333333 L 280.7086614173228 259.92499999999995 L 284.3307086614173 260.54166666666663 L 287.95275590551176 258.3833333333333 L 291.5748031496063 256.84166666666664 L 295.19685039370074 256.84166666666664 L 298.81889763779526 258.69166666666666 L 302.4409448818897 259.6166666666667 L 306.06299212598424 258.69166666666666 L 309.6850393700787 255.60833333333335 L 313.3070866141732 254.6833333333333 L 316.9291338582677 254.99166666666667 L 320.5511811023622 254.375 L 324.17322834645665 253.45 L 327.79527559055117 253.45 L 331.41732283464563 253.14166666666665 L 335.03937007874015 252.525 L 338.6614173228346 253.45 L 342.2834645669291 254.375 L 345.9055118110236 254.375 L 349.52755905511805 252.83333333333331 L 353.14960629921256 251.59999999999997 L 356.771653543307 249.13333333333333 L 360.39370078740154 247.9 L 364.015748031496 246.66666666666666 L 367.6377952755905 246.04999999999998 L 371.259842519685 246.35833333333335 L 374.8818897637795 246.97499999999997 L 378.50393700787396 246.66666666666666 L 382.1259842519685 247.59166666666664 L 385.74803149606294 249.44166666666666 L 389.37007874015745 251.59999999999997 L 392.9921259842519 253.14166666666665 L 396.61417322834643 251.59999999999997 L 400.2362204724409 249.44166666666666 L 403.8582677165354 248.825 L 407.48031496062987 246.97499999999997 L 411.1023622047244 245.74166666666667 L 414.72440944881885 245.74166666666667 L 418.34645669291336 246.04999999999998 L 421.9685039370078 246.66666666666666 L 425.59055118110234 246.97499999999997 L 429.2125984251968 247.59166666666664 L 432.8346456692913 248.825 L 436.4566929133858 248.20833333333331 L 440.0787401574803 247.9 L 443.70078740157476 246.35833333333335 L 447.3228346456693 244.50833333333333 L 450.94488188976374 243.275 L 454.56692913385825 241.73333333333335 L 458.1889763779527 242.34999999999997" stroke="rgb(0,0,0)" stroke-width="1.5"  stroke-dasharray="12,4.5"></path></g><g class="highcharts-markers highcharts-series-0"  transform="translate(80,140) scale(1 1)" clip-path="none"></g><g class="highcharts-series highcharts-series-1"  transform="translate(80,140) scale(1 1)" clip-path="url(#highcharts-7)"><path fill="none" d="M 1.811023622047244 308.3333333333333 L 5.4330708661417315 308.3333333333333 L 9.05511811023622 308.3333333333333 L 12.677165354330707 308.02500000000003 L 16.299212598425196 307.40833333333336 L 19.921259842519685 306.48333333333335 L 23.54330708661417 304.325 L 27.16535433070866 295.3833333333333 L 30.787401574803148 289.21666666666664 L 34.40944881889764 288.29166666666663 L 38.031496062992126 287.3666666666667 L 41.653543307086615 287.3666666666667 L 45.2755905511811 287.98333333333335 L 48.897637795275585 287.67499999999995 L 52.519685039370074 287.67499999999995 L 56.14173228346456 287.98333333333335 L 59.76377952755905 287.3666666666667 L 63.38582677165354 287.0583333333333 L 67.00787401574803 284.90000000000003 L 70.62992125984252 276.26666666666665 L 74.25196850393701 271.3333333333333 L 77.8740157480315 268.5583333333333 L 81.49606299212599 267.325 L 85.11811023622047 267.325 L 88.74015748031495 267.01666666666665 L 92.36220472440944 267.325 L 95.98425196850393 267.6333333333333 L 99.60629921259842 267.01666666666665 L 103.2283464566929 266.4 L 106.8503937007874 266.09166666666664 L 110.47244094488188 263.9333333333333 L 114.09448818897637 254.6833333333333 L 117.71653543307086 248.20833333333331 L 121.33858267716535 247.28333333333333 L 124.96062992125984 246.97499999999997 L 128.5826771653543 246.97499999999997 L 132.2047244094488 246.66666666666666 L 135.8267716535433 246.97499999999997 L 139.44881889763778 247.28333333333333 L 143.07086614173227 246.97499999999997 L 146.69291338582676 245.74166666666667 L 150.31496062992125 245.4333333333333 L 153.93700787401573 243.275 L 157.55905511811022 230.9416666666667 L 161.1811023622047 224.775 L 164.8031496062992 223.54166666666666 L 168.4251968503937 224.775 L 172.04724409448818 224.775 L 175.66929133858264 225.39166666666665 L 179.29133858267713 225.7 L 182.91338582677162 225.08333333333331 L 186.5354330708661 224.46666666666664 L 190.1574803149606 224.15833333333333 L 193.77952755905508 223.84999999999997 L 197.40157480314957 221.69166666666666 L 201.02362204724406 211.20833333333331 L 204.64566929133855 207.50833333333335 L 208.26771653543304 208.74166666666662 L 211.88976377952753 208.4333333333333 L 215.51181102362202 209.05000000000004 L 219.1338582677165 207.50833333333335 L 222.755905511811 207.19999999999996 L 226.37795275590548 207.19999999999996 L 229.99999999999997 207.50833333333335 L 233.62204724409446 206.275 L 237.24409448818895 206.58333333333331 L 240.86614173228344 202.88333333333335 L 244.48818897637793 189.9333333333333 L 248.11023622047242 185 L 251.7322834645669 185.3083333333333 L 255.3543307086614 184.38333333333335 L 258.97637795275585 184.38333333333335 L 262.59842519685037 184.69166666666666 L 266.22047244094483 185.3083333333333 L 269.84251968503935 185.3083333333333 L 273.4645669291338 185.3083333333333 L 277.0866141732283 184.69166666666666 L 280.7086614173228 184.69166666666666 L 284.3307086614173 180.6833333333333 L 287.95275590551176 172.05 L 291.5748031496063 167.425 L 295.19685039370074 166.5 L 298.81889763779526 166.8083333333333 L 302.4409448818897 167.11666666666662 L 306.06299212598424 165.26666666666665 L 309.6850393700787 165.57499999999996 L 313.3070866141732 165.57499999999996 L 316.9291338582677 165.57499999999996 L 320.5511811023622 165.57499999999996 L 324.17322834645665 165.26666666666665 L 327.79527559055117 162.49166666666662 L 331.41732283464563 153.55 L 335.03937007874015 150.775 L 338.6614173228346 150.15833333333327 L 342.2834645669291 149.54166666666666 L 345.9055118110236 149.54166666666666 L 349.52755905511805 149.23333333333335 L 353.14960629921256 148 L 356.771653543307 148 L 360.39370078740154 147.69166666666666 L 364.015748031496 147.38333333333335 L 367.6377952755905 146.45833333333331 L 371.259842519685 144.60833333333335 L 374.8818897637795 138.13333333333335 L 378.50393700787396 135.05 L 382.1259842519685 133.81666666666666 L 385.74803149606294 133.19999999999996 L 389.37007874015745 133.50833333333335 L 392.9921259842519 132.275 L 396.61417322834643 132.58333333333331 L 400.2362204724409 132.275 L 403.8582677165354 131.65833333333327 L 407.48031496062987 131.65833333333327 L 411.1023622047244 130.425 L 414.72440944881885 128.26666666666665 L 418.34645669291336 122.40833333333327 L 421.9685039370078 117.47499999999997 L 425.59055118110234 116.55000000000001 L 429.2125984251968 116.55000000000001 L 432.8346456692913 116.55000000000001 L 436.4566929133858 117.47499999999997 L 440.0787401574803 117.16666666666666 L 443.70078740157476 117.47499999999997 L 447.3228346456693 116.85833333333335 L 450.94488188976374 116.55000000000001 L 454.56692913385825 115.93333333333331 L 458.1889763779527 115.00833333333335" stroke="rgb(124,181,236)" stroke-width="1.5"  stroke-linejoin="round" stroke-linecap="round"></path></g><g class="highcharts-markers highcharts-series-1"  transform="translate(80,140) scale(1 1)" clip-path="none"></g><g class="highcharts-series highcharts-series-2"  transform="translate(80,140) scale(1 1)" clip-path="url(#highcharts-7)"><path fill="none" d="M 1.811023622047244 308.3333333333333 L 5.4330708661417315 308.3333333333333 L 9.05511811023622 308.02500000000003 L 12.677165354330707 307.40833333333336 L 16.299212598425196 306.7916666666667 L 19.921259842519685 304.6333333333333 L 23.54330708661417 302.78333333333336 L 27.16535433070866 293.84166666666664 L 30.787401574803148 290.14166666666665 L 34.40944881889764 290.14166666666665 L 38.031496062992126 290.45 L 41.653543307086615 290.14166666666665 L 45.2755905511811 290.14166666666665 L 48.897637795275585 289.52500000000003 L 52.519685039370074 289.52500000000003 L 56.14173228346456 289.52500000000003 L 59.76377952755905 288.9083333333333 L 63.38582677165354 287.67499999999995 L 67.00787401574803 286.1333333333333 L 70.62992125984252 278.1166666666667 L 74.25196850393701 274.10833333333335 L 77.8740157480315 273.1833333333333 L 81.49606299212599 272.2583333333333 L 85.11811023622047 272.2583333333333 L 88.74015748031495 272.2583333333333 L 92.36220472440944 272.2583333333333 L 95.98425196850393 271.64166666666665 L 99.60629921259842 271.3333333333333 L 103.2283464566929 270.4083333333333 L 106.8503937007874 269.17499999999995 L 110.47244094488188 267.325 L 114.09448818897637 258.3833333333333 L 117.71653543307086 252.83333333333331 L 121.33858267716535 251.90833333333333 L 124.96062992125984 251.29166666666666 L 128.5826771653543 251.29166666666666 L 132.2047244094488 251.29166666666666 L 135.8267716535433 251.29166666666666 L 139.44881889763778 250.98333333333335 L 143.07086614173227 250.67499999999998 L 146.69291338582676 250.36666666666667 L 150.31496062992125 249.75 L 153.93700787401573 247.28333333333333 L 157.55905511811022 239.88333333333333 L 161.1811023622047 236.49166666666667 L 164.8031496062992 236.79999999999998 L 168.4251968503937 236.79999999999998 L 172.04724409448818 236.79999999999998 L 175.66929133858264 236.79999999999998 L 179.29133858267713 236.49166666666667 L 182.91338582677162 235.875 L 186.5354330708661 235.5666666666667 L 190.1574803149606 235.25833333333333 L 193.77952755905508 234.33333333333331 L 197.40157480314957 230.9416666666667 L 201.02362204724406 226.625 L 204.64566929133855 221.69166666666666 L 208.26771653543304 222 L 211.88976377952753 222 L 215.51181102362202 222 L 219.1338582677165 222 L 222.755905511811 222 L 226.37795275590548 221.38333333333335 L 229.99999999999997 221.38333333333335 L 233.62204724409446 221.07499999999996 L 237.24409448818895 219.5333333333333 L 240.86614173228344 216.14166666666665 L 244.48818897637793 211.82499999999996 L 248.11023622047242 207.19999999999996 L 251.7322834645669 207.19999999999996 L 255.3543307086614 207.19999999999996 L 258.97637795275585 207.19999999999996 L 262.59842519685037 207.19999999999996 L 266.22047244094483 206.89166666666665 L 269.84251968503935 206.89166666666665 L 273.4645669291338 206.89166666666665 L 277.0866141732283 206.58333333333331 L 280.7086614173228 205.34999999999997 L 284.3307086614173 202.57499999999996 L 287.95275590551176 197.025 L 291.5748031496063 193.63333333333335 L 295.19685039370074 193.01666666666665 L 298.81889763779526 193.01666666666665 L 302.4409448818897 193.01666666666665 L 306.06299212598424 192.70833333333331 L 309.6850393700787 192.70833333333331 L 313.3070866141732 192.70833333333331 L 316.9291338582677 192.70833333333331 L 320.5511811023622 192.4 L 324.17322834645665 190.85833333333335 L 327.79527559055117 187.4666666666667 L 331.41732283464563 180.6833333333333 L 335.03937007874015 176.98333333333335 L 338.6614173228346 176.67500000000004 L 342.2834645669291 176.67500000000004 L 345.9055118110236 176.67500000000004 L 349.52755905511805 176.67500000000004 L 353.14960629921256 176.67500000000004 L 356.771653543307 176.67500000000004 L 360.39370078740154 176.67500000000004 L 364.015748031496 175.44166666666666 L 367.6377952755905 173.5916666666667 L 371.259842519685 169.89166666666665 L 374.8818897637795 164.3416666666667 L 378.50393700787396 159.7166666666667 L 382.1259842519685 159.7166666666667 L 385.74803149606294 159.40833333333327 L 389.37007874015745 159.40833333333327 L 392.9921259842519 159.40833333333327 L 396.61417322834643 159.40833333333327 L 400.2362204724409 159.09999999999997 L 403.8582677165354 159.09999999999997 L 407.48031496062987 157.5583333333333 L 411.1023622047244 155.70833333333331 L 414.72440944881885 152.9333333333333 L 418.34645669291336 148 L 421.9685039370078 143.375 L 425.59055118110234 142.75833333333335 L 429.2125984251968 142.14166666666665 L 432.8346456692913 142.14166666666665 L 436.4566929133858 142.14166666666665 L 440.0787401574803 141.83333333333331 L 443.70078740157476 141.525 L 447.3228346456693 141.2166666666667 L 450.94488188976374 140.90833333333327 L 454.56692913385825 140.29166666666666 L 458.1889763779527 138.13333333333335" stroke="#90ed7d" stroke-width="1.5"  stroke-linejoin="round" stroke-linecap="round"></path></g><g class="highcharts-markers highcharts-series-2"  transform="translate(80,140) scale(1 1)" clip-path="none"></g><g class="highcharts-series highcharts-series-3"  transform="translate(80,140) scale(1 1)" clip-path="url(#highcharts-7)"><path fill="none" d="M 1.811023622047244 308.3333333333333 L 5.4330708661417315 308.64166666666665 L 9.05511811023622 308.64166666666665 L 12.677165354330707 308.3333333333333 L 16.299212598425196 308.3333333333333 L 19.921259842519685 307.09999999999997 L 23.54330708661417 305.8666666666667 L 27.16535433070866 303.40000000000003 L 30.787401574803148 297.23333333333335 L 34.40944881889764 296.3083333333333 L 38.031496062992126 296.3083333333333 L 41.653543307086615 295.69166666666666 L 45.2755905511811 295.075 L 48.897637795275585 294.15000000000003 L 52.519685039370074 294.15000000000003 L 56.14173228346456 293.5333333333333 L 59.76377952755905 293.5333333333333 L 63.38582677165354 293.5333333333333 L 67.00787401574803 291.9916666666667 L 70.62992125984252 291.06666666666666 L 74.25196850393701 283.97499999999997 L 77.8740157480315 283.66666666666663 L 81.49606299212599 283.66666666666663 L 85.11811023622047 283.35833333333335 L 88.74015748031495 280.5833333333333 L 92.36220472440944 280.27500000000003 L 95.98425196850393 280.27500000000003 L 99.60629921259842 280.27500000000003 L 103.2283464566929 279.96666666666664 L 106.8503937007874 279.04166666666663 L 110.47244094488188 278.1166666666667 L 114.09448818897637 274.41666666666663 L 117.71653543307086 268.8666666666667 L 121.33858267716535 267.325 L 124.96062992125984 267.325 L 128.5826771653543 266.7083333333333 L 132.2047244094488 265.7833333333333 L 135.8267716535433 265.47499999999997 L 139.44881889763778 265.16666666666663 L 143.07086614173227 265.16666666666663 L 146.69291338582676 265.16666666666663 L 150.31496062992125 264.54999999999995 L 153.93700787401573 263.9333333333333 L 157.55905511811022 263.0083333333333 L 161.1811023622047 259 L 164.8031496062992 259 L 168.4251968503937 259 L 172.04724409448818 258.69166666666666 L 175.66929133858264 257.76666666666665 L 179.29133858267713 255.29999999999998 L 182.91338582677162 254.6833333333333 L 186.5354330708661 253.45 L 190.1574803149606 253.75833333333333 L 193.77952755905508 252.525 L 197.40157480314957 251.90833333333333 L 201.02362204724406 250.0583333333333 L 204.64566929133855 246.66666666666666 L 208.26771653543304 247.28333333333333 L 211.88976377952753 246.97499999999997 L 215.51181102362202 245.4333333333333 L 219.1338582677165 244.50833333333333 L 222.755905511811 244.2 L 226.37795275590548 244.2 L 229.99999999999997 243.58333333333331 L 233.62204724409446 243.275 L 237.24409448818895 242.96666666666664 L 240.86614173228344 242.34999999999997 L 244.48818897637793 240.5 L 248.11023622047242 238.65 L 251.7322834645669 235.875 L 255.3543307086614 237.41666666666666 L 258.97637795275585 237.10833333333335 L 262.59842519685037 235.5666666666667 L 266.22047244094483 235.25833333333333 L 269.84251968503935 235.25833333333333 L 273.4645669291338 234.64166666666665 L 277.0866141732283 234.33333333333331 L 280.7086614173228 234.33333333333331 L 284.3307086614173 233.09999999999997 L 287.95275590551176 231.86666666666667 L 291.5748031496063 227.85833333333335 L 295.19685039370074 227.54999999999998 L 298.81889763779526 227.24166666666667 L 302.4409448818897 226.9333333333333 L 306.06299212598424 224.775 L 309.6850393700787 224.775 L 313.3070866141732 224.46666666666664 L 316.9291338582677 224.15833333333333 L 320.5511811023622 223.84999999999997 L 324.17322834645665 224.46666666666664 L 327.79527559055117 223.54166666666666 L 331.41732283464563 222.61666666666667 L 335.03937007874015 219.8416666666667 L 338.6614173228346 219.5333333333333 L 342.2834645669291 218.91666666666666 L 345.9055118110236 218.60833333333335 L 349.52755905511805 219.22499999999997 L 353.14960629921256 218.91666666666666 L 356.771653543307 216.75833333333335 L 360.39370078740154 216.75833333333335 L 364.015748031496 216.14166666666665 L 367.6377952755905 215.83333333333331 L 371.259842519685 215.525 L 374.8818897637795 213.0583333333333 L 378.50393700787396 209.66666666666666 L 382.1259842519685 209.35833333333335 L 385.74803149606294 209.05000000000004 L 389.37007874015745 209.66666666666666 L 392.9921259842519 207.19999999999996 L 396.61417322834643 206.89166666666665 L 400.2362204724409 203.19166666666666 L 403.8582677165354 200.10833333333335 L 407.48031496062987 199.49166666666662 L 411.1023622047244 198.56666666666666 L 414.72440944881885 197.64166666666665 L 418.34645669291336 195.79166666666666 L 421.9685039370078 192.4 L 425.59055118110234 192.0916666666667 L 429.2125984251968 192.0916666666667 L 432.8346456692913 193.32499999999996 L 436.4566929133858 191.7833333333333 L 440.0787401574803 190.85833333333335 L 443.70078740157476 190.24166666666662 L 447.3228346456693 189.625 L 450.94488188976374 189.31666666666666 L 454.56692913385825 188.69999999999996 L 458.1889763779527 187.4666666666667" stroke="#f7a35c" stroke-width="1.5"  stroke-linejoin="round" stroke-linecap="round"></path></g><g class="highcharts-markers highcharts-series-3"  transform="translate(80,140) scale(1 1)" clip-path="none"></g><g class="highcharts-series highcharts-series-4"  transform="translate(80,140) scale(1 1)" clip-path="url(#highcharts-7)"><path fill="none" d="M 1.811023622047244 308.3333333333333 L 5.4330708661417315 308.3333333333333 L 9.05511811023622 308.02500000000003 L 12.677165354330707 307.71666666666664 L 16.299212598425196 304.94166666666666 L 19.921259842519685 303.7083333333333 L 23.54330708661417 301.85833333333335 L 27.16535433070866 299.39166666666665 L 30.787401574803148 298.46666666666664 L 34.40944881889764 298.46666666666664 L 38.031496062992126 297.84999999999997 L 41.653543307086615 296.3083333333333 L 45.2755905511811 298.77500000000003 L 48.897637795275585 297.84999999999997 L 52.519685039370074 294.76666666666665 L 56.14173228346456 295.69166666666666 L 59.76377952755905 292.60833333333335 L 63.38582677165354 291.375 L 67.00787401574803 294.76666666666665 L 70.62992125984252 286.1333333333333 L 74.25196850393701 284.59166666666664 L 77.8740157480315 283.04999999999995 L 81.49606299212599 282.125 L 85.11811023622047 280.27500000000003 L 88.74015748031495 282.4333333333333 L 92.36220472440944 282.7416666666667 L 95.98425196850393 282.4333333333333 L 99.60629921259842 281.2 L 103.2283464566929 279.04166666666663 L 106.8503937007874 275.34166666666664 L 110.47244094488188 274.10833333333335 L 114.09448818897637 269.79166666666663 L 117.71653543307086 268.5583333333333 L 121.33858267716535 269.48333333333335 L 124.96062992125984 269.48333333333335 L 128.5826771653543 268.8666666666667 L 132.2047244094488 268.5583333333333 L 135.8267716535433 267.6333333333333 L 139.44881889763778 266.7083333333333 L 143.07086614173227 266.4 L 146.69291338582676 261.46666666666664 L 150.31496062992125 259.6166666666667 L 153.93700787401573 255.91666666666666 L 157.55905511811022 253.14166666666665 L 161.1811023622047 256.5333333333333 L 164.8031496062992 256.5333333333333 L 168.4251968503937 256.5333333333333 L 172.04724409448818 255.60833333333335 L 175.66929133858264 255.91666666666666 L 179.29133858267713 255.29999999999998 L 182.91338582677162 254.6833333333333 L 186.5354330708661 252.83333333333331 L 190.1574803149606 251.90833333333333 L 193.77952755905508 248.51666666666665 L 197.40157480314957 245.125 L 201.02362204724406 243.275 L 204.64566929133855 241.42499999999998 L 208.26771653543304 241.11666666666667 L 211.88976377952753 241.11666666666667 L 215.51181102362202 240.8083333333333 L 219.1338582677165 240.1916666666667 L 222.755905511811 240.1916666666667 L 226.37795275590548 240.1916666666667 L 229.99999999999997 234.95 L 233.62204724409446 234.64166666666665 L 237.24409448818895 232.17499999999998 L 240.86614173228344 225.7 L 244.48818897637793 220.45833333333331 L 248.11023622047242 220.76666666666665 L 251.7322834645669 220.45833333333331 L 255.3543307086614 220.45833333333331 L 258.97637795275585 219.8416666666667 L 262.59842519685037 219.5333333333333 L 266.22047244094483 216.75833333333335 L 269.84251968503935 215.83333333333331 L 273.4645669291338 215.525 L 277.0866141732283 214.59999999999997 L 280.7086614173228 213.0583333333333 L 284.3307086614173 212.75 L 287.95275590551176 210.5916666666667 L 291.5748031496063 208.125 L 295.19685039370074 207.81666666666666 L 298.81889763779526 208.4333333333333 L 302.4409448818897 208.4333333333333 L 306.06299212598424 204.73333333333335 L 309.6850393700787 204.42500000000004 L 313.3070866141732 203.5 L 316.9291338582677 203.19166666666666 L 320.5511811023622 202.88333333333335 L 324.17322834645665 202.88333333333335 L 327.79527559055117 201.65 L 331.41732283464563 199.1833333333333 L 335.03937007874015 197.94999999999996 L 338.6614173228346 197.025 L 342.2834645669291 196.7166666666667 L 345.9055118110236 196.09999999999997 L 349.52755905511805 197.025 L 353.14960629921256 197.33333333333331 L 356.771653543307 197.025 L 360.39370078740154 196.4083333333333 L 364.015748031496 194.86666666666662 L 367.6377952755905 194.25 L 371.259842519685 193.32499999999996 L 374.8818897637795 190.85833333333335 L 378.50393700787396 190.55000000000004 L 382.1259842519685 189.00833333333335 L 385.74803149606294 188.69999999999996 L 389.37007874015745 188.69999999999996 L 392.9921259842519 188.69999999999996 L 396.61417322834643 188.69999999999996 L 400.2362204724409 188.69999999999996 L 403.8582677165354 189.9333333333333 L 407.48031496062987 188.39166666666665 L 411.1023622047244 187.775 L 414.72440944881885 186.54166666666666 L 418.34645669291336 185.61666666666662 L 421.9685039370078 184.69166666666666 L 425.59055118110234 184.38333333333335 L 429.2125984251968 184.07499999999996 L 432.8346456692913 183.76666666666665 L 436.4566929133858 182.22499999999997 L 440.0787401574803 182.22499999999997 L 443.70078740157476 181.91666666666666 L 447.3228346456693 181.60833333333335 L 450.94488188976374 181.60833333333335 L 454.56692913385825 180.99166666666662 L 458.1889763779527 179.75833333333335" stroke="#8085e9" stroke-width="1.5"  stroke-linejoin="round" stroke-linecap="round"></path></g><g class="highcharts-markers highcharts-series-4"  transform="translate(80,140) scale(1 1)" clip-path="none"></g><g class="highcharts-series highcharts-series-5"  transform="translate(80,140) scale(1 1)" clip-path="url(#highcharts-7)"><path fill="none" d="M 1.811023622047244 308.3333333333333 L 5.4330708661417315 308.3333333333333 L 9.05511811023622 308.64166666666665 L 12.677165354330707 308.64166666666665 L 16.299212598425196 306.48333333333335 L 19.921259842519685 305.8666666666667 L 23.54330708661417 304.94166666666666 L 27.16535433070866 299.0833333333333 L 30.787401574803148 293.84166666666664 L 34.40944881889764 292.91666666666663 L 38.031496062992126 292.91666666666663 L 41.653543307086615 292.91666666666663 L 45.2755905511811 292.60833333333335 L 48.897637795275585 292.29999999999995 L 52.519685039370074 291.9916666666667 L 56.14173228346456 291.9916666666667 L 59.76377952755905 290.14166666666665 L 63.38582677165354 290.14166666666665 L 67.00787401574803 288.59999999999997 L 70.62992125984252 282.125 L 74.25196850393701 276.8833333333333 L 77.8740157480315 276.26666666666665 L 81.49606299212599 276.26666666666665 L 85.11811023622047 276.26666666666665 L 88.74015748031495 275.9583333333333 L 92.36220472440944 275.9583333333333 L 95.98425196850393 275.9583333333333 L 99.60629921259842 275.9583333333333 L 103.2283464566929 275.0333333333333 L 106.8503937007874 274.72499999999997 L 110.47244094488188 273.4916666666667 L 114.09448818897637 266.09166666666664 L 117.71653543307086 261.775 L 121.33858267716535 260.54166666666663 L 124.96062992125984 260.23333333333335 L 128.5826771653543 260.23333333333335 L 132.2047244094488 259.3083333333333 L 135.8267716535433 258.69166666666666 L 139.44881889763778 258.69166666666666 L 143.07086614173227 258.3833333333333 L 146.69291338582676 258.3833333333333 L 150.31496062992125 258.3833333333333 L 153.93700787401573 256.22499999999997 L 157.55905511811022 247.59166666666664 L 161.1811023622047 243.58333333333331 L 164.8031496062992 242.65833333333333 L 168.4251968503937 242.34999999999997 L 172.04724409448818 242.34999999999997 L 175.66929133858264 241.73333333333335 L 179.29133858267713 241.73333333333335 L 182.91338582677162 241.73333333333335 L 186.5354330708661 241.73333333333335 L 190.1574803149606 241.11666666666667 L 193.77952755905508 240.8083333333333 L 197.40157480314957 239.575 L 201.02362204724406 230.9416666666667 L 204.64566929133855 227.54999999999998 L 208.26771653543304 226.625 L 211.88976377952753 226.625 L 215.51181102362202 226.625 L 219.1338582677165 226.00833333333333 L 222.755905511811 226.00833333333333 L 226.37795275590548 225.7 L 229.99999999999997 225.7 L 233.62204724409446 225.39166666666665 L 237.24409448818895 225.08333333333331 L 240.86614173228344 223.54166666666666 L 244.48818897637793 215.83333333333331 L 248.11023622047242 212.13333333333335 L 251.7322834645669 211.51666666666665 L 255.3543307086614 211.51666666666665 L 258.97637795275585 211.51666666666665 L 262.59842519685037 211.51666666666665 L 266.22047244094483 210.9 L 269.84251968503935 210.9 L 273.4645669291338 210.9 L 277.0866141732283 210.2833333333333 L 280.7086614173228 209.97499999999997 L 284.3307086614173 207.81666666666666 L 287.95275590551176 199.80000000000004 L 291.5748031496063 196.09999999999997 L 295.19685039370074 194.86666666666662 L 298.81889763779526 194.5583333333333 L 302.4409448818897 194.5583333333333 L 306.06299212598424 193.94166666666666 L 309.6850393700787 193.94166666666666 L 313.3070866141732 193.63333333333335 L 316.9291338582677 193.63333333333335 L 320.5511811023622 193.01666666666665 L 324.17322834645665 192.70833333333331 L 327.79527559055117 191.47499999999997 L 331.41732283464563 185.61666666666662 L 335.03937007874015 181.91666666666666 L 338.6614173228346 180.6833333333333 L 342.2834645669291 180.375 L 345.9055118110236 180.375 L 349.52755905511805 180.06666666666666 L 353.14960629921256 179.75833333333335 L 356.771653543307 179.44999999999996 L 360.39370078740154 179.44999999999996 L 364.015748031496 179.44999999999996 L 367.6377952755905 179.14166666666665 L 371.259842519685 177.9083333333333 L 374.8818897637795 173.2833333333333 L 378.50393700787396 169.89166666666665 L 382.1259842519685 168.65833333333327 L 385.74803149606294 168.34999999999997 L 389.37007874015745 168.34999999999997 L 392.9921259842519 168.04166666666666 L 396.61417322834643 167.11666666666662 L 400.2362204724409 168.04166666666666 L 403.8582677165354 168.04166666666666 L 407.48031496062987 168.04166666666666 L 411.1023622047244 167.425 L 414.72440944881885 165.26666666666665 L 418.34645669291336 161.56666666666666 L 421.9685039370078 156.94166666666666 L 425.59055118110234 155.4 L 429.2125984251968 155.0916666666667 L 432.8346456692913 155.0916666666667 L 436.4566929133858 154.78333333333327 L 440.0787401574803 154.47499999999997 L 443.70078740157476 155.0916666666667 L 447.3228346456693 155.0916666666667 L 450.94488188976374 154.78333333333327 L 454.56692913385825 153.55 L 458.1889763779527 152.625" stroke="#f15c80" stroke-width="1.5"  stroke-linejoin="round" stroke-linecap="round"></path></g><g class="highcharts-markers highcharts-series-5"  transform="translate(80,140) scale(1 1)" clip-path="none"></g><g class="highcharts-series highcharts-series-6"  transform="translate(80,140) scale(1 1)" clip-path="url(#highcharts-7)"><path fill="none" d="M 1.811023622047244 308.3333333333333 L 5.4330708661417315 305.8666666666667 L 9.05511811023622 305.25 L 12.677165354330707 305.25 L 16.299212598425196 303.7083333333333 L 19.921259842519685 301.85833333333335 L 23.54330708661417 302.16666666666663 L 27.16535433070866 298.46666666666664 L 30.787401574803148 296 L 34.40944881889764 292.60833333333335 L 38.031496062992126 292.60833333333335 L 41.653543307086615 291.6833333333333 L 45.2755905511811 286.44166666666666 L 48.897637795275585 284.59166666666664 L 52.519685039370074 279.6583333333333 L 56.14173228346456 279.34999999999997 L 59.76377952755905 278.73333333333335 L 63.38582677165354 277.8083333333333 L 67.00787401574803 275.65000000000003 L 70.62992125984252 268.25 L 74.25196850393701 265.7833333333333 L 77.8740157480315 264.54999999999995 L 81.49606299212599 264.85833333333335 L 85.11811023622047 262.39166666666665 L 88.74015748031495 259.3083333333333 L 92.36220472440944 258.075 L 95.98425196850393 257.15 L 99.60629921259842 255.60833333333335 L 103.2283464566929 254.375 L 106.8503937007874 254.06666666666666 L 110.47244094488188 253.14166666666665 L 114.09448818897637 240.5 L 117.71653543307086 237.10833333333335 L 121.33858267716535 236.1833333333333 L 124.96062992125984 237.41666666666666 L 128.5826771653543 235.875 L 132.2047244094488 232.48333333333335 L 135.8267716535433 231.25 L 139.44881889763778 229.09166666666664 L 143.07086614173227 228.47499999999997 L 146.69291338582676 228.47499999999997 L 150.31496062992125 224.775 L 153.93700787401573 220.76666666666665 L 157.55905511811022 213.98333333333335 L 161.1811023622047 210.5916666666667 L 164.8031496062992 210.2833333333333 L 168.4251968503937 208.74166666666662 L 172.04724409448818 207.81666666666666 L 175.66929133858264 204.42500000000004 L 179.29133858267713 201.95833333333331 L 182.91338582677162 201.95833333333331 L 186.5354330708661 203.19166666666666 L 190.1574803149606 201.95833333333331 L 193.77952755905508 200.10833333333335 L 197.40157480314957 200.10833333333335 L 201.02362204724406 199.49166666666662 L 204.64566929133855 196.4083333333333 L 208.26771653543304 195.17500000000004 L 211.88976377952753 195.48333333333335 L 215.51181102362202 192.0916666666667 L 219.1338582677165 185.3083333333333 L 222.755905511811 185.92500000000004 L 226.37795275590548 184.07499999999996 L 229.99999999999997 183.76666666666665 L 233.62204724409446 183.15 L 237.24409448818895 182.8416666666667 L 240.86614173228344 181.30000000000004 L 244.48818897637793 176.67500000000004 L 248.11023622047242 169.58333333333331 L 251.7322834645669 168.9666666666667 L 255.3543307086614 167.73333333333335 L 258.97637795275585 168.65833333333327 L 262.59842519685037 162.49166666666662 L 266.22047244094483 161.56666666666666 L 269.84251968503935 159.7166666666667 L 273.4645669291338 158.48333333333335 L 277.0866141732283 155.4 L 280.7086614173228 155.0916666666667 L 284.3307086614173 146.15 L 287.95275590551176 139.675 L 291.5748031496063 135.05 L 295.19685039370074 134.125 L 298.81889763779526 131.9666666666667 L 302.4409448818897 133.19999999999996 L 306.06299212598424 126.41666666666666 L 309.6850393700787 126.10833333333335 L 313.3070866141732 124.25833333333335 L 316.9291338582677 123.94999999999996 L 320.5511811023622 121.79166666666666 L 324.17322834645665 121.17500000000001 L 327.79527559055117 118.4 L 331.41732283464563 120.25 L 335.03937007874015 112.84999999999997 L 338.6614173228346 107.91666666666663 L 342.2834645669291 106.68333333333328 L 345.9055118110236 105.75833333333338 L 349.52755905511805 112.84999999999997 L 353.14960629921256 109.14999999999998 L 356.771653543307 111 L 360.39370078740154 106.68333333333328 L 364.015748031496 105.14166666666665 L 367.6377952755905 106.375 L 371.259842519685 103.59999999999997 L 374.8818897637795 92.5 L 378.50393700787396 87.25833333333338 L 382.1259842519685 83.55833333333328 L 385.74803149606294 83.86666666666662 L 389.37007874015745 79.85833333333335 L 392.9921259842519 75.23333333333335 L 396.61417322834643 77.08333333333331 L 400.2362204724409 74.61666666666662 L 403.8582677165354 74 L 407.48031496062987 73.38333333333333 L 411.1023622047244 78.00833333333338 L 414.72440944881885 74.30833333333328 L 418.34645669291336 64.13333333333333 L 421.9685039370078 60.43333333333328 L 425.59055118110234 56.11666666666662 L 429.2125984251968 54.57499999999993 L 432.8346456692913 51.18333333333328 L 436.4566929133858 50.875 L 440.0787401574803 55.19166666666666 L 443.70078740157476 57.04166666666663 L 447.3228346456693 48.099999999999966 L 450.94488188976374 48.7166666666667 L 454.56692913385825 40.69999999999993 L 458.1889763779527 38.54166666666663" stroke="#e4d354" stroke-width="1.5"  stroke-linejoin="round" stroke-linecap="round"></path></g><g class="highcharts-markers highcharts-series-6"  transform="translate(80,140) scale(1 1)" clip-path="none"></g></g><text x="10" text-anchor="start" class="highcharts-title"  style="color:#000000;font-size:14px;font-family:sans-serif;font-weight:bold;fill:#000000;width:516px;" y="21"><tspan>Consumer price indexes for tuition and school-related items, not seasonally</tspan><tspan dy="17" x="10">adjusted, January 2006–July 2016</tspan><title>Consumer price indexes for tuition and school-related items, not seasonally adjusted, January 2006–July 2016</title></text><text x="10" text-anchor="start" class="highcharts-subtitle"  style="color:#000000;font-family:sans-serif;font-weight:normal;font-size:12px;fill:#000000;width:516px;" y="57"><tspan>January 2006=100</tspan></text><g class="highcharts-legend"  transform="translate(110,50)"><rect x="0" y="0" width="349" height="101" fill="none" visibility="visible"></rect><g ><g><g class="highcharts-legend-item"  transform="translate(8,3)"><path fill="none" d="M 0 11 L 16 11" stroke-dasharray="12,4.5" stroke="rgb(0,0,0)" stroke-width="1.5"></path><text x="21" style="color:#000;font-size:12px;font-weight:bold;cursor:pointer;font-family:calibri, verdana, arial, helvetica, sans-serif;fill:#000;" text-anchor="start"  y="15"><tspan>All items</tspan></text></g><g class="highcharts-legend-item"  transform="translate(117.96875,3)"><path fill="none" d="M 0 11 L 16 11" stroke="rgb(124,181,236)" stroke-width="1.5"></path><text x="21" y="15" style="color:#000;font-size:12px;font-weight:bold;cursor:pointer;font-family:calibri, verdana, arial, helvetica, sans-serif;fill:#000;" text-anchor="start" ><tspan>College tuition and fees</tspan></text></g><g class="highcharts-legend-item"  transform="translate(8,18)"><path fill="none" d="M 0 11 L 16 11" stroke="#90ed7d" stroke-width="1.5"></path><text x="21" y="15" style="color:#000;font-size:12px;font-weight:bold;cursor:pointer;font-family:calibri, verdana, arial, helvetica, sans-serif;fill:#000;" text-anchor="start" ><tspan>Elementary and high school tuition and fees</tspan></text></g><g class="highcharts-legend-item"  transform="translate(8,33)"><path fill="none" d="M 0 11 L 16 11" stroke="#f7a35c" stroke-width="1.5"></path><text x="21" y="15" style="color:#000;font-size:12px;font-weight:bold;cursor:pointer;font-family:calibri, verdana, arial, helvetica, sans-serif;fill:#000;" text-anchor="start" ><tspan>Childcare and nursery school</tspan></text></g><g class="highcharts-legend-item"  transform="translate(8,48)"><path fill="none" d="M 0 11 L 16 11" stroke="#8085e9" stroke-width="1.5"></path><text x="21" y="15" style="color:#000;font-size:12px;font-weight:bold;cursor:pointer;font-family:calibri, verdana, arial, helvetica, sans-serif;fill:#000;" text-anchor="start" ><tspan>Technical and business school tuition and fees</tspan></text></g><g class="highcharts-legend-item"  transform="translate(8,63)"><path fill="none" d="M 0 11 L 16 11" stroke="#f15c80" stroke-width="1.5"></path><text x="21" y="15" style="color:#000;font-size:12px;font-weight:bold;cursor:pointer;font-family:calibri, verdana, arial, helvetica, sans-serif;fill:#000;" text-anchor="start" ><tspan>Housing at school, excluding board</tspan></text></g><g class="highcharts-legend-item"  transform="translate(8,78)"><path fill="none" d="M 0 11 L 16 11" stroke="#e4d354" stroke-width="1.5"></path><text x="21" y="15" style="color:#000;font-size:12px;font-weight:bold;cursor:pointer;font-family:calibri, verdana, arial, helvetica, sans-serif;fill:#000;" text-anchor="start" ><tspan>College textbooks</tspan></text></g></g></g></g><g class="highcharts-axis-labels highcharts-xaxis-labels" ><text x="81.81102362204724" style="color:#000000;cursor:default;font-size:12px;font-family:calibri, verdana, arial, helvetica, sans-serif;font-weight:normal;background-color:#fff;text-overflow:none;fill:#000000;width:41.81818181818182;" text-anchor="middle" transform="translate(0,0)" y="530" opacity="1"><tspan>Jan</tspan><tspan dy="15" x="81.81102362204724">2006</tspan><title>Jan 2006</title></text><text x="125.2755905511811" style="color:#000000;cursor:default;font-size:12px;font-family:calibri, verdana, arial, helvetica, sans-serif;font-weight:normal;background-color:#fff;text-overflow:none;fill:#000000;width:41.81818181818182;" text-anchor="middle" transform="translate(0,0)" y="530" opacity="1"><tspan>Jan</tspan><tspan dy="15" x="125.2755905511811">2007</tspan><title>Jan 2007</title></text><text x="168.74015748031496" style="color:#000000;cursor:default;font-size:12px;font-family:calibri, verdana, arial, helvetica, sans-serif;font-weight:normal;background-color:#fff;text-overflow:none;fill:#000000;width:41.81818181818182;" text-anchor="middle" transform="translate(0,0)" y="530" opacity="1"><tspan>Jan</tspan><tspan dy="15" x="168.74015748031496">2008</tspan><title>Jan 2008</title></text><text x="212.2047244094488" style="color:#000000;cursor:default;font-size:12px;font-family:calibri, verdana, arial, helvetica, sans-serif;font-weight:normal;background-color:#fff;text-overflow:none;fill:#000000;width:41.81818181818182;" text-anchor="middle" transform="translate(0,0)" y="530" opacity="1"><tspan>Jan</tspan><tspan dy="15" x="212.2047244094488">2009</tspan><title>Jan 2009</title></text><text x="255.66929133858264" style="color:#000000;cursor:default;font-size:12px;font-family:calibri, verdana, arial, helvetica, sans-serif;font-weight:normal;background-color:#fff;text-overflow:none;fill:#000000;width:41.81818181818182;" text-anchor="middle" transform="translate(0,0)" y="530" opacity="1"><tspan>Jan</tspan><tspan dy="15" x="255.66929133858264">2010</tspan><title>Jan 2010</title></text><text x="299.1338582677165" style="color:#000000;cursor:default;font-size:12px;font-family:calibri, verdana, arial, helvetica, sans-serif;font-weight:normal;background-color:#fff;text-overflow:none;fill:#000000;width:41.81818181818182;" text-anchor="middle" transform="translate(0,0)" y="530" opacity="1"><tspan>Jan</tspan><tspan dy="15" x="299.1338582677165">2011</tspan><title>Jan 2011</title></text><text x="342.59842519685037" style="color:#000000;cursor:default;font-size:12px;font-family:calibri, verdana, arial, helvetica, sans-serif;font-weight:normal;background-color:#fff;text-overflow:none;fill:#000000;width:41.81818181818182;" text-anchor="middle" transform="translate(0,0)" y="530" opacity="1"><tspan>Jan</tspan><tspan dy="15" x="342.59842519685037">2012</tspan><title>Jan 2012</title></text><text x="386.06299212598424" style="color:#000000;cursor:default;font-size:12px;font-family:calibri, verdana, arial, helvetica, sans-serif;font-weight:normal;background-color:#fff;text-overflow:none;fill:#000000;width:41.81818181818182;" text-anchor="middle" transform="translate(0,0)" y="530" opacity="1"><tspan>Jan</tspan><tspan dy="15" x="386.06299212598424">2013</tspan><title>Jan 2013</title></text><text x="429.52755905511805" style="color:#000000;cursor:default;font-size:12px;font-family:calibri, verdana, arial, helvetica, sans-serif;font-weight:normal;background-color:#fff;text-overflow:none;fill:#000000;width:41.81818181818182;" text-anchor="middle" transform="translate(0,0)" y="530" opacity="1"><tspan>Jan</tspan><tspan dy="15" x="429.52755905511805">2014</tspan><title>Jan 2014</title></text><text x="472.9921259842519" style="color:#000000;cursor:default;font-size:12px;font-family:calibri, verdana, arial, helvetica, sans-serif;font-weight:normal;background-color:#fff;text-overflow:none;fill:#000000;width:41.81818181818182;" text-anchor="middle" transform="translate(0,0)" y="530" opacity="1"><tspan>Jan</tspan><tspan dy="15" x="472.9921259842519">2015</tspan><title>Jan 2015</title></text><text x="516.4566929133857" style="color:#000000;cursor:default;font-size:12px;font-family:calibri, verdana, arial, helvetica, sans-serif;font-weight:normal;background-color:#fff;text-overflow:none;fill:#000000;width:41.81818181818182;" text-anchor="middle" transform="translate(0,0)" y="530" opacity="1"><tspan>Jan</tspan><tspan dy="15" x="516.4566929133857">2016</tspan><title>Jan 2016</title></text></g><g class="highcharts-axis-labels highcharts-yaxis-labels" ><text x="65" style="color:#000000;cursor:default;font-size:12px;font-family:calibri, verdana, arial, helvetica, sans-serif;font-weight:normal;background-color:#fff;fill:#000000;width:60px;text-overflow:clip;" text-anchor="end" transform="translate(0,0)" y="515" opacity="1">80</text><text x="65" style="color:#000000;cursor:default;font-size:12px;font-family:calibri, verdana, arial, helvetica, sans-serif;font-weight:normal;background-color:#fff;fill:#000000;width:60px;text-overflow:clip;" text-anchor="end" transform="translate(0,0)" y="453" opacity="1">100</text><text x="65" style="color:#000000;cursor:default;font-size:12px;font-family:calibri, verdana, arial, helvetica, sans-serif;font-weight:normal;background-color:#fff;fill:#000000;width:60px;text-overflow:clip;" text-anchor="end" transform="translate(0,0)" y="391" opacity="1">120</text><text x="65" style="color:#000000;cursor:default;font-size:12px;font-family:calibri, verdana, arial, helvetica, sans-serif;font-weight:normal;background-color:#fff;fill:#000000;width:60px;text-overflow:clip;" text-anchor="end" transform="translate(0,0)" y="330" opacity="1">140</text><text x="65" style="color:#000000;cursor:default;font-size:12px;font-family:calibri, verdana, arial, helvetica, sans-serif;font-weight:normal;background-color:#fff;fill:#000000;width:60px;text-overflow:clip;" text-anchor="end" transform="translate(0,0)" y="268" opacity="1">160</text><text x="65" style="color:#000000;cursor:default;font-size:12px;font-family:calibri, verdana, arial, helvetica, sans-serif;font-weight:normal;background-color:#fff;fill:#000000;width:60px;text-overflow:clip;" text-anchor="end" transform="translate(0,0)" y="206" opacity="1">180</text><text x="65" style="color:#000000;cursor:default;font-size:12px;font-family:calibri, verdana, arial, helvetica, sans-serif;font-weight:normal;background-color:#fff;fill:#000000;width:60px;text-overflow:clip;" text-anchor="end" transform="translate(0,0)" y="145" opacity="1">200</text></g><g class="highcharts-tooltip"  style="cursor:default;padding:0;pointer-events:none;white-space:nowrap;" transform="translate(0,-9999)"><path fill="none" d="M 3.5 0.5 L 13.5 0.5 C 16.5 0.5 16.5 0.5 16.5 3.5 L 16.5 13.5 C 16.5 16.5 16.5 16.5 13.5 16.5 L 3.5 16.5 C 0.5 16.5 0.5 16.5 0.5 13.5 L 0.5 3.5 C 0.5 0.5 0.5 0.5 3.5 0.5"  stroke="black" stroke-opacity="0.049999999999999996" stroke-width="5" transform="translate(1, 1)"></path><path fill="none" d="M 3.5 0.5 L 13.5 0.5 C 16.5 0.5 16.5 0.5 16.5 3.5 L 16.5 13.5 C 16.5 16.5 16.5 16.5 13.5 16.5 L 3.5 16.5 C 0.5 16.5 0.5 16.5 0.5 13.5 L 0.5 3.5 C 0.5 0.5 0.5 0.5 3.5 0.5"  stroke="black" stroke-opacity="0.09999999999999999" stroke-width="3" transform="translate(1, 1)"></path><path fill="none" d="M 3.5 0.5 L 13.5 0.5 C 16.5 0.5 16.5 0.5 16.5 3.5 L 16.5 13.5 C 16.5 16.5 16.5 16.5 13.5 16.5 L 3.5 16.5 C 0.5 16.5 0.5 16.5 0.5 13.5 L 0.5 3.5 C 0.5 0.5 0.5 0.5 3.5 0.5"  stroke="black" stroke-opacity="0.15" stroke-width="1" transform="translate(1, 1)"></path><path fill="#FEFFEF" d="M 3.5 0.5 L 13.5 0.5 C 16.5 0.5 16.5 0.5 16.5 3.5 L 16.5 13.5 C 16.5 16.5 16.5 16.5 13.5 16.5 L 3.5 16.5 C 0.5 16.5 0.5 16.5 0.5 13.5 L 0.5 3.5 C 0.5 0.5 0.5 0.5 3.5 0.5"></path><text x="8"  style="font-size:12px;font-family:calibri, verdana, arial, helvetica, sans-serif;color:#000000;fill:#000000;" y="20"></text></g><text x="10" text-anchor="start"  style="cursor:default;color:#2c2c2c;font-size:9px;fill:#2c2c2c;" y="567"><tspan>Click legend items to change data display. Hover over chart to view data.</tspan><tspan x="10" dy="12">Shaded area represents recession, as determined by the National Bureau of Economic Research.</tspan><tspan x="10" dy="12">Source: U.S. Bureau of Labor Statistics.</tspan></text></svg>